<svg width="24" height="24" viewBox="0 0 24 24" fill="none" xmlns="http://www.w3.org/2000/svg">
  <path d="M12 2C9.24 2 7 4.24 7 7V8H6C4.9 8 4 8.9 4 10V16C4 17.66 5.34 19 7 19H17C18.66 19 20 17.66 20 16V10C20 8.9 19.1 8 18 8H17V7C17 4.24 14.76 2 12 2ZM9 7C9 5.34 10.34 4 12 4C13.66 4 15 5.34 15 7V8H9V7ZM9 13C8.45 13 8 12.55 8 12C8 11.45 8.45 11 9 11C9.55 11 10 11.45 10 12C10 12.55 9.55 13 9 13ZM15 13C14.45 13 14 12.55 14 12C14 11.45 14.45 11 15 11C15.55 11 16 11.45 16 12C16 12.55 15.55 13 15 13Z" fill="#6E40C9"/>
  <path d="M10 21L12 22L14 21" stroke="#6E40C9" stroke-width="1.5" stroke-linecap="round" stroke-linejoin="round"/>
</svg>
